<svg width="174" height="152" viewBox="0 0 174 152" fill="none" xmlns="http://www.w3.org/2000/svg">
<g clip-path="url(#clip0)">
<rect width="174" height="152" fill="white"/>
<path d="M86.1549 134.594L138.553 147.106C143.57 148.303 147.517 142.863 144.828 138.489L100.743 66.7832C99.0451 64.0208 95.5147 63.1778 92.7536 64.8754L13.947 113.326C11.1859 115.023 10.3445 118.554 12.0428 121.316L56.1278 193.023C58.8168 197.396 65.4534 196.33 66.649 191.312L79.1371 138.908C79.9606 135.864 83.0669 133.955 86.1549 134.594Z" fill="#FFA600"/>
<path d="M124.166 84.5826C120.326 82.9216 115.764 84.729 114.103 88.5694C112.442 92.4099 107.88 94.2172 104.039 92.5563L79.4041 81.9017C75.5637 80.2407 73.7563 75.6785 75.4173 71.838C77.0783 67.9976 75.2709 63.4354 71.4304 61.7744C67.59 60.1134 65.7826 55.5513 67.4436 51.7108L78.0982 27.0757C79.7997 23.1416 84.3214 21.4279 88.1618 23.0888C92.0023 24.7498 96.5645 22.9425 98.2254 19.102C99.8864 15.2615 104.355 13.4137 108.289 15.1152L132.924 25.7698C136.765 27.4308 138.572 31.9929 136.911 35.8334C135.25 39.6738 137.057 44.236 140.898 45.897C144.738 47.558 146.546 52.1202 144.885 55.9606L134.23 80.5957C132.569 84.4362 128.007 86.2436 124.166 84.5826Z" stroke="#8247F5" stroke-width="4" stroke-miterlimit="10"/>
<mask id="mask0" mask-type="alpha" maskUnits="userSpaceOnUse" x="9" y="61" width="139" height="137">
<path d="M86.1549 134.593L138.553 147.105C143.57 148.303 147.517 142.862 144.828 138.488L100.743 66.7822C99.0451 64.0198 95.5147 63.1768 92.7536 64.8744L13.947 113.325C11.1859 115.022 10.3445 118.553 12.0428 121.315L56.1278 193.022C58.8168 197.395 65.4534 196.329 66.649 191.311L79.1371 138.907C79.9606 135.864 83.0669 133.954 86.1549 134.593Z" fill="#FEA521"/>
</mask>
<g mask="url(#mask0)">
<path d="M124.166 84.5819C120.326 82.9209 115.764 84.7282 114.103 88.5687C112.442 92.4091 107.88 94.2165 104.039 92.5555L79.4041 81.9009C75.5637 80.2399 73.7563 75.6778 75.4173 71.8373C77.0783 67.9968 75.2709 63.4347 71.4304 61.7737C67.59 60.1127 65.7826 55.5505 67.4436 51.7101L78.0982 27.0749C79.7997 23.1408 84.3214 21.4271 88.1618 23.0881C92.0023 24.7491 96.5645 22.9417 98.2254 19.1013C99.8864 15.2608 104.355 13.4129 108.289 15.1144L132.924 25.769C136.765 27.43 138.572 31.9922 136.911 35.8327C135.25 39.6731 137.057 44.2353 140.898 45.8963C144.738 47.5573 146.546 52.1194 144.885 55.9599L134.23 80.595C132.569 84.4355 128.007 86.2428 124.166 84.5819Z" stroke="#BFB0FF" stroke-width="6" stroke-miterlimit="10"/>
</g>
</g>
<defs>
<clipPath id="clip0">
<rect width="174" height="152" fill="white"/>
</clipPath>
</defs>
</svg>
