<svg width="174" height="152" viewBox="0 0 174 152" fill="none" xmlns="http://www.w3.org/2000/svg">
<g clip-path="url(#clip0)">
<rect width="174" height="152" fill="white"/>
<path d="M89.0053 111.314L113.513 48.0463C115.181 43.7393 120.886 42.8535 123.782 46.4518L166.319 99.3095C169.215 102.908 167.13 108.292 162.566 109L95.5208 119.41C90.9566 120.119 87.3369 115.621 89.0053 111.314Z" stroke="#8247F5" stroke-width="4"/>
<path d="M106.417 133.381L106.407 133.384C96.192 136.505 90.4995 147.187 93.6228 157.373C97.5813 170.282 83.8994 181.594 71.7845 175.302L68.3896 173.504L16.5445 146.045L13.1432 144.244C1.2153 137.927 2.9017 120.293 15.8766 116.329C26.0898 113.208 31.7821 102.529 28.6624 92.3449C24.7872 79.4437 38.4204 68.1453 50.4379 74.51L53.8392 76.3114L105.684 103.77L109.086 105.571C121.031 111.898 119.306 129.518 106.417 133.381Z" stroke="#0099FF" stroke-width="4"/>
<mask id="mask0" mask-type="alpha" maskUnits="userSpaceOnUse" x="3" y="70" width="117" height="110">
<path d="M106.417 133.381L106.407 133.384C96.192 136.506 90.4995 147.187 93.6228 157.373C97.5813 170.283 83.8994 181.594 71.7845 175.302L68.3896 173.504L16.5445 146.046L13.1432 144.244C1.2153 137.927 2.9017 120.294 15.8766 116.329C26.0898 113.208 31.7821 102.53 28.6624 92.3454C24.7872 79.4442 38.4204 68.1458 50.4379 74.5105L53.8392 76.3119L105.684 103.77L109.086 105.572C121.031 111.898 119.306 129.519 106.417 133.381Z" fill="#0099FF" stroke="#0099FF" stroke-width="4"/>
</mask>
<g mask="url(#mask0)">
<path d="M89.0046 111.312L113.512 48.0444C115.18 43.7374 120.885 42.8516 123.781 46.4499L166.319 99.3076C169.214 102.906 167.129 108.29 162.565 108.998L95.52 119.408C90.9559 120.117 87.3362 115.619 89.0046 111.312Z" fill="#E55CFF" stroke="#E55CFF" stroke-width="4"/>
</g>
</g>
<defs>
<clipPath id="clip0">
<rect width="174" height="152" fill="white"/>
</clipPath>
</defs>
</svg>
