<svg width="174" height="152" viewBox="0 0 174 152" fill="none" xmlns="http://www.w3.org/2000/svg">
<g clip-path="url(#clip0)">
<rect width="174" height="152" fill="white"/>
<path d="M80.7139 106.838C86.9404 107.501 92.9971 104.831 96.68 99.8152L102.423 91.8784C106.106 86.8623 112.163 84.1927 118.389 84.8559L154.71 88.7244C160.937 89.3876 166.295 93.273 168.839 98.9522L183.656 132.282C186.199 137.961 185.483 144.689 181.8 149.705L160.314 178.994C156.631 184.01 150.574 186.679 144.348 186.016C138.121 185.353 132.065 188.023 128.382 193.039L122.657 200.803C118.974 205.819 112.918 208.489 106.691 207.826L70.5428 203.976C64.3164 203.312 58.9578 199.427 56.4141 193.748L41.5791 160.59C39.0354 154.911 39.7519 148.184 43.4347 143.168L64.7479 113.86C68.4307 108.844 74.4875 106.175 80.7139 106.838Z" fill="#8347F5"/>
<path d="M128.956 93.5811C119.851 109.951 135.098 129.154 153.039 124.04L181.389 115.958C192.619 112.757 199.081 101.14 195.879 89.9073L179.596 32.7871C176.394 21.5548 164.778 15.0908 153.547 18.2922L125.061 26.4126C107.12 31.527 104.29 55.8833 120.658 64.9916C130.866 70.672 134.497 83.411 128.956 93.5811Z" stroke="#0AE9EF" stroke-width="12" stroke-miterlimit="10"/>
<mask id="mask0" mask-type="alpha" maskUnits="userSpaceOnUse" x="35" y="77" width="156" height="139">
<path d="M80.7139 106.838C86.9404 107.501 92.9971 104.831 96.68 99.8152L102.423 91.8784C106.106 86.8623 112.163 84.1927 118.389 84.8559L154.71 88.7244C160.937 89.3876 166.295 93.273 168.839 98.9522L183.656 132.282C186.199 137.961 185.483 144.689 181.8 149.705L160.314 178.994C156.631 184.01 150.574 186.679 144.348 186.016C138.121 185.353 132.065 188.023 128.382 193.039L122.657 200.803C118.974 205.819 112.918 208.489 106.691 207.826L70.5428 203.976C64.3164 203.312 58.9578 199.427 56.4141 193.748L41.5791 160.59C39.0354 154.911 39.7519 148.184 43.4347 143.168L64.7479 113.86C68.4307 108.844 74.4875 106.175 80.7139 106.838Z" fill="#8347F5"/>
</mask>
<g mask="url(#mask0)">
<path d="M128.956 93.5814C119.851 109.951 135.099 129.154 153.04 124.04L181.389 115.958C192.619 112.757 199.081 101.14 195.879 89.9075L179.596 32.7873C176.394 21.555 164.778 15.0911 153.548 18.2924L125.062 26.4129C107.121 31.5272 104.29 55.8836 120.658 64.9918C130.866 70.6722 134.498 83.4113 128.956 93.5814Z" stroke="#FEA521" stroke-width="12" stroke-miterlimit="10"/>
</g>
</g>
<defs>
<clipPath id="clip0">
<rect width="174" height="152" fill="white"/>
</clipPath>
</defs>
</svg>
