<svg width="174" height="152" viewBox="0 0 174 152" fill="none" xmlns="http://www.w3.org/2000/svg">
<rect width="174" height="152" fill="white"/>
<g clip-path="url(#clip0)">
<path d="M175.71 -1.84006L175.72 -1.82006L187.92 36.5299C188.801 39.3785 188.936 42.4059 188.311 45.3215C187.686 48.2371 186.322 50.9431 184.35 53.1799L157.45 83.1299C155.484 85.3198 152.975 86.9519 150.176 87.8615C147.377 88.771 144.388 88.9257 141.51 88.3099L102.4 79.9099C99.5479 79.2754 96.9128 77.9019 94.7592 75.9273C92.6055 73.9527 91.0091 71.4464 90.13 68.6599L77.93 30.2999C77.0495 27.4512 76.9154 24.4241 77.5405 21.5087C78.1656 18.5933 79.529 15.8872 81.5 13.6499H81.51L108.4 -16.3001C110.368 -18.4933 112.88 -20.1274 115.683 -21.0371C118.486 -21.9468 121.479 -22.0996 124.36 -21.4801L163.32 -13.1101C166.208 -12.5197 168.883 -11.1626 171.065 -9.18124C173.247 -7.1999 174.855 -4.66749 175.72 -1.85006L175.71 -1.84006Z" stroke="#0AE8F0" stroke-width="4"/>
<path d="M40.73 116.85C42.2621 114.268 43.2682 111.408 43.6902 108.435C44.1122 105.463 43.9418 102.436 43.1889 99.5291C42.436 96.6225 41.1154 93.8936 39.3032 91.4996C37.4911 89.1056 35.2231 87.0938 32.63 85.5801C18.2 77.1101 21.2 55.3601 37.49 50.9801L41.99 49.8001L110.63 31.9001L115.13 30.7201C131.28 26.5001 144.52 43.9901 136.03 58.4601C134.499 61.0419 133.495 63.901 133.074 66.8727C132.652 69.8444 132.823 72.87 133.576 75.7754C134.329 78.6809 135.649 81.4087 137.46 83.8019C139.271 86.1951 141.538 88.2065 144.13 89.7201C158.46 98.2401 155.51 119.94 139.23 124.19L134.73 125.36L66.09 143.27L61.59 144.44C45.42 148.66 32.22 131.16 40.73 116.85V116.85Z" stroke="#004796" stroke-width="4"/>
<path fill-rule="evenodd" clip-rule="evenodd" d="M148.43 90.37C146.04 90.82 143.55 90.8 141.08 90.27L101.98 81.87C98.7826 81.162 95.8276 79.6249 93.4123 77.4132C90.997 75.2014 89.2062 72.393 88.2201 69.27L78.3601 38.25L84.1601 36.73L93.9401 67.45C94.6059 69.5646 95.8154 71.4674 97.4474 72.9679C99.0795 74.4683 101.077 75.5139 103.24 76L140.16 83.93C141.605 85.5318 143.288 86.9012 145.15 87.99C146.35 88.7 147.45 89.5 148.43 90.37V90.37Z" fill="#8247F5"/>
</g>
<defs>
<clipPath id="clip0">
<rect width="174" height="152" fill="white"/>
</clipPath>
</defs>
</svg>
